<svg width="86" height="86" viewBox="0 0 86 86" fill="none" xmlns="http://www.w3.org/2000/svg">
<g clip-path="url(#clip0)">
<rect x="-17" y="-17" width="120" height="120" rx="60" fill="#5A9EFF"/>
<path d="M47.8958 28C50.8727 28 52.3041 28.2764 53.7914 29.0718C55.1402 29.7932 56.2068 30.8598 56.9282 32.2086C57.7236 33.6959 58 35.1273 58 38.1042V47.8958C58 50.8727 57.7236 52.3041 56.9282 53.7914C56.2068 55.1402 55.1402 56.2068 53.7914 56.9282C52.3041 57.7236 50.8727 58 47.8958 58H38.1042C35.1273 58 33.6959 57.7236 32.2086 56.9282C30.8598 56.2068 29.7932 55.1402 29.0718 53.7914C28.2764 52.3041 28 50.8727 28 47.8958V38.1042C28 35.1273 28.2764 33.6959 29.0718 32.2086C29.7932 30.8598 30.8598 29.7932 32.2086 29.0718C33.6959 28.2764 35.1273 28 38.1042 28H47.8958ZM47.8958 30.7273H38.1042C35.539 30.7273 34.5329 30.9216 33.4948 31.4768C32.6213 31.9439 31.9439 32.6213 31.4768 33.4948C30.9216 34.5329 30.7273 35.539 30.7273 38.1042V47.8958C30.7273 50.4609 30.9216 51.4671 31.4768 52.5052C31.9439 53.3787 32.6213 54.0561 33.4948 54.5232C34.5329 55.0784 35.539 55.2727 38.1042 55.2727H47.8958C50.4609 55.2727 51.4671 55.0784 52.5052 54.5232C53.3787 54.0561 54.0561 53.3787 54.5232 52.5052C55.0784 51.4671 55.2727 50.4609 55.2727 47.8958V38.1042C55.2727 35.539 55.0784 34.5329 54.5232 33.4948C54.0561 32.6213 53.3787 31.9439 52.5052 31.4768C51.4671 30.9216 50.4609 30.7273 47.8958 30.7273ZM41.6364 47.7727C42.3895 47.7727 43 48.3832 43 49.1364C43 49.8895 42.3895 50.5 41.6364 50.5H36.1818C35.4287 50.5 34.8182 49.8895 34.8182 49.1364C34.8182 48.3832 35.4287 47.7727 36.1818 47.7727H41.6364ZM49.8182 41.6364C50.5713 41.6364 51.1818 42.2469 51.1818 43C51.1818 43.7531 50.5713 44.3636 49.8182 44.3636H36.1818C35.4287 44.3636 34.8182 43.7531 34.8182 43C34.8182 42.2469 35.4287 41.6364 36.1818 41.6364H49.8182ZM49.8182 35.5C50.5713 35.5 51.1818 36.1105 51.1818 36.8636C51.1818 37.6168 50.5713 38.2273 49.8182 38.2273H36.1818C35.4287 38.2273 34.8182 37.6168 34.8182 36.8636C34.8182 36.1105 35.4287 35.5 36.1818 35.5H49.8182Z" fill="white"/>
</g>
<defs>
<clipPath id="clip0">
<rect width="86" height="86" rx="43" fill="white"/>
</clipPath>
</defs>
</svg>
